
General
Complete name                    : D:\TOORENT FOR UPLOAD\Eminem 5 Video Song Pack by RoYStaR\Bad Meets Evil - Fast Lane ft. Eminem, Royce Da 59 by RoYStaR\Bad Meets Evil - Fast Lane ft. Eminem, Royce Da 59.mp4
Format                           : MPEG-4
Format profile                   : Base Media / Version 2
Codec ID                         : mp42
File size                        : 169 MiB
Duration                         : 4mn 9s
Overall bit rate                 : 5 708 Kbps
Encoded date                     : UTC 2011-06-07 15:35:16
Tagged date                      : UTC 2011-06-07 15:35:16
gsst                             : 0
gstd                             : 249026
gssd                             : B4A7D6245HH1307864427716159
gshh                             :

Video
ID                               : 1
Format                           : AVC
Format/Info                      : Advanced Video Codec
Format profile                   : High@L4.0
Format settings, CABAC           : Yes
Format settings, ReFrames        : 1 frame
Codec ID                         : avc1
Codec ID/Info                    : Advanced Video Coding
Duration                         : 4mn 9s
Bit rate                         : 5 550 Kbps
Maximum bit rate                 : 10.6 Mbps
Width                            : 1 920 pixels
Height                           : 1 080 pixels
Display aspect ratio             : 16:9
Frame rate mode                  : Variable
Frame rate                       : 23.976 fps
Minimum frame rate               : 17.241 fps
Maximum frame rate               : 24.390 fps
Color space                      : YUV
Chroma subsampling               : 4:2:0
Bit depth                        : 8 bits
Scan type                        : Progressive
Bits/(Pixel*Frame)               : 0.112
Stream size                      : 165 MiB (97%)
Tagged date                      : UTC 2011-06-07 15:35:18

Audio
ID                               : 2
Format                           : AAC
Format/Info                      : Advanced Audio Codec
Format profile                   : LC
Codec ID                         : 40
Duration                         : 4mn 8s
Bit rate mode                    : Variable
Bit rate                         : 152 Kbps
Maximum bit rate                 : 176 Kbps
Channel(s)                       : 2 channels
Channel positions                : Front: L R
Sampling rate                    : 44.1 KHz
Compression mode                 : Lossy
Stream size                      : 4.51 MiB (3%)
Title                            : IsoMedia File Produced by Google, 5-11-2011
Encoded date                     : UTC 2011-06-07 15:35:17
Tagged date                      : UTC 2011-06-07 15:35:18
-----------------------------------------------------------------------------------

General
Complete name                    : D:\TOORENT FOR UPLOAD\Eminem 5 Video Song Pack by RoYStaR\Bad Meets Evil ft.Bruno Mars - Lighters (2011) by RoYStaR\Bad Meets Evil ft.Bruno Mars - Lighters.mp4
Format                           : MPEG-4
Format profile                   : Base Media / Version 2
Codec ID                         : mp42
File size                        : 104 MiB
Duration                         : 5mn 8s
Overall bit rate                 : 2 835 Kbps
Movie name                       : Lighters
Album/Performer                  : Bad Meets Evil
Part/Position                    : 0
Part/Total                       : 0
Track name/Position              : 0
Track name/Total                 : 0
Performer                        : Bad Meets Evil
Genre                            : Rap
Recorded date                    : 2011
Encoded date                     : UTC 2011-08-18 23:55:34
Tagged date                      : UTC 2011-08-18 23:55:34
Copyright                        : BadMeetsEvil
Cover                            : Yes
gsst                             : 0
gstd                             : 308181
gssd                             : BD075EB05HH1314037507780225
gshh                             :
©url                             : *****
tvsn                             : 0
tves                             : 0
rati                             : (Binary)
stik                             : 0

Video
ID                               : 1
Format                           : AVC
Format/Info                      : Advanced Video Codec
Format profile                   : High@L4.0
Format settings, CABAC           : Yes
Format settings, ReFrames        : 1 frame
Format settings, GOP             : M=1, N=48
Codec ID                         : avc1
Codec ID/Info                    : Advanced Video Coding
Duration                         : 5mn 8s
Bit rate                         : 2 678 Kbps
Maximum bit rate                 : 5 060 Kbps
Width                            : 1 920 pixels
Height                           : 1 080 pixels
Display aspect ratio             : 16:9
Frame rate mode                  : Variable
Frame rate                       : 23.976 fps
Minimum frame rate               : 23.810 fps
Maximum frame rate               : 24.390 fps
Color space                      : YUV
Chroma subsampling               : 4:2:0
Bit depth                        : 8 bits
Scan type                        : Progressive
Bits/(Pixel*Frame)               : 0.054
Stream size                      : 98.4 MiB (94%)
Tagged date                      : UTC 2011-08-18 23:55:36

Audio
ID                               : 2
Format                           : AAC
Format/Info                      : Advanced Audio Codec
Format profile                   : LC
Codec ID                         : 40
Duration                         : 5mn 8s
Bit rate mode                    : Variable
Bit rate                         : 150 Kbps
Maximum bit rate                 : 177 Kbps
Channel(s)                       : 2 channels
Channel positions                : Front: L R
Sampling rate                    : 44.1 KHz
Compression mode                 : Lossy
Stream size                      : 5.50 MiB (5%)
Title                            : IsoMedia File Produced by Google, 5-11-2011
Encoded date                     : UTC 2011-08-18 23:55:35
Tagged date                      : UTC 2011-08-18 23:55:36
-----------------------------------------------------------------------------------

General
Complete name                    : D:\TOORENT FOR UPLOAD\Eminem 5 Video Song Pack by RoYStaR\Eminem - Not Afraid - 1080p by RoYStaR\Eminem - Not Afraid - 1080p.mp4
Format                           : MPEG-4
Format profile                   : Base Media / Version 2
Codec ID                         : mp42
File size                        : 107 MiB
Duration                         : 4mn 18s
Overall bit rate                 : 3 470 Kbps
Encoded date                     : UTC 2010-06-04 05:36:05
Tagged date                      : UTC 2010-06-04 05:36:05
gsst                             : 0
gstd                             : 259226
gssd                             : B4A7D6EC2HH1292009888791406
gshh                             :

Video
ID                               : 2
Format                           : AVC
Format/Info                      : Advanced Video Codec
Format profile                   : High@L4.0
Format settings, CABAC           : Yes
Format settings, ReFrames        : 1 frame
Format settings, GOP             : M=1, N=60
Codec ID                         : avc1
Codec ID/Info                    : Advanced Video Coding
Duration                         : 4mn 18s
Bit rate                         : 3 346 Kbps
Maximum bit rate                 : 5 609 Kbps
Width                            : 1 920 pixels
Height                           : 1 080 pixels
Display aspect ratio             : 16:9
Frame rate mode                  : Constant
Frame rate                       : 24.000 fps
Color space                      : YUV
Chroma subsampling               : 4:2:0
Bit depth                        : 8 bits
Scan type                        : Progressive
Bits/(Pixel*Frame)               : 0.067
Stream size                      : 103 MiB (96%)
Title                            : (C) 2007 Google Inc. v08.13.2007.
Encoded date                     : UTC 2010-06-04 05:36:05
Tagged date                      : UTC 2010-06-04 05:36:06

Audio
ID                               : 1
Format                           : AAC
Format/Info                      : Advanced Audio Codec
Format profile                   : LC
Codec ID                         : 40
Duration                         : 4mn 18s
Bit rate mode                    : Variable
Bit rate                         : 121 Kbps
Maximum bit rate                 : 150 Kbps
Channel(s)                       : 2 channels
Channel positions                : Front: L R
Sampling rate                    : 44.1 KHz
Compression mode                 : Lossy
Stream size                      : 3.75 MiB (4%)
Title                            : (C) 2007 Google Inc. v08.13.2007.
Encoded date                     : UTC 2010-06-04 05:36:05
Tagged date                      : UTC 2010-06-04 05:36:06

-----------------------------------------------------------------------------------

General
Complete name                    : D:\TOORENT FOR UPLOAD\Eminem 5 Video Song Pack by RoYStaR\Eminem - Space Bound  2011 by RoYStaR\Eminem - Space Bound.mp4
Format                           : MPEG-4
Format profile                   : Base Media / Version 2
Codec ID                         : mp42
File size                        : 74.1 MiB
Duration                         : 4mn 24s
Overall bit rate                 : 2 350 Kbps
Movie name                       : Space Bound
Album/Performer                  : Eminem
Part/Position                    : 0
Part/Total                       : 0
Track name/Position              : 0
Track name/Total                 : 0
Performer                        : Eminem
Genre                            : Rap
Recorded date                    : 2011
Encoded date                     : UTC 2011-06-22 23:40:43
Tagged date                      : UTC 2011-06-22 23:40:43
Writing application              : +++
Copyright                        : EMINEM
Cover                            : Yes
gsst                             : 0
gstd                             : 264458
gssd                             : BC8957706HH1309183461067204
gshh                             :
tvsn                             : 0
tves                             : 0
rati                             : (Binary)
stik                             : 0

Video
ID                               : 1
Format                           : AVC
Format/Info                      : Advanced Video Codec
Format profile                   : High@L4.0
Format settings, CABAC           : Yes
Format settings, ReFrames        : 1 frame
Format settings, GOP             : M=1, N=48
Codec ID                         : avc1
Codec ID/Info                    : Advanced Video Coding
Duration                         : 4mn 24s
Bit rate                         : 2 191 Kbps
Maximum bit rate                 : 5 204 Kbps
Width                            : 1 920 pixels
Height                           : 1 080 pixels
Display aspect ratio             : 16:9
Frame rate mode                  : Variable
Frame rate                       : 23.976 fps
Minimum frame rate               : 17.241 fps
Maximum frame rate               : 24.390 fps
Color space                      : YUV
Chroma subsampling               : 4:2:0
Bit depth                        : 8 bits
Scan type                        : Progressive
Bits/(Pixel*Frame)               : 0.044
Stream size                      : 69.1 MiB (93%)
Tagged date                      : UTC 2011-06-22 23:40:46

Audio
ID                               : 2
Format                           : AAC
Format/Info                      : Advanced Audio Codec
Format profile                   : LC
Codec ID                         : 40
Duration                         : 4mn 24s
Bit rate mode                    : Variable
Bit rate                         : 152 Kbps
Maximum bit rate                 : 182 Kbps
Channel(s)                       : 2 channels
Channel positions                : Front: L R
Sampling rate                    : 44.1 KHz
Compression mode                 : Lossy
Stream size                      : 4.79 MiB (6%)
Title                            : IsoMedia File Produced by Google, 5-11-2011
Encoded date                     : UTC 2011-06-22 23:40:45
Tagged date                      : UTC 2011-06-22 23:40:46

-----------------------------------------------------------------------------------General
Complete name                    : D:\TOORENT FOR UPLOAD\Eminem 5 Video Song Pack by RoYStaR\Eminem - Without Me by RoYStaR\Eminem - Without Me.avi
Format                           : AVI
Format/Info                      : Audio Video Interleave
File size                        : 71.5 MiB
Duration                         : 4mn 58s
Overall bit rate                 : 2 012 Kbps
Writing library                  : TMPGEnc 4.0 XPress Version. 4.2.3.193

Video
ID                               : 0
Format                           : MPEG-4 Visual
Format profile                   : Advanced Simple@L5
Format settings, BVOP            : 2
Format settings, QPel            : No
Format settings, GMC             : No warppoints
Format settings, Matrix          : Default (H.263)
Muxing mode                      : Packed bitstream
Codec ID                         : XVID
Codec ID/Hint                    : XviD
Duration                         : 4mn 58s
Bit rate                         : 1 812 Kbps
Width                            : 640 pixels
Height                           : 480 pixels
Display aspect ratio             : 4:3
Frame rate                       : 23.976 fps
Color space                      : YUV
Chroma subsampling               : 4:2:0
Bit depth                        : 8 bits
Scan type                        : Progressive
Compression mode                 : Lossy
Bits/(Pixel*Frame)               : 0.246
Stream size                      : 64.4 MiB (90%)
Writing library                  : XviD 1.2.0.dev47 (UTC 2006-11-01)

Audio
ID                               : 1
Format                           : MPEG Audio
Format version                   : Version 1
Format profile                   : Layer 3
Mode                             : Joint stereo
Codec ID                         : 55
Codec ID/Hint                    : MP3
Duration                         : 4mn 58s
Bit rate mode                    : Constant
Bit rate                         : 192 Kbps
Channel(s)                       : 2 channels
Sampling rate                    : 44.1 KHz
Compression mode                 : Lossy
Stream size                      : 6.83 MiB (10%)
Alignment                        : Split accross interleaves
Interleave, duration             : 250 ms (5.99 video frames)
Interleave, preload duration     : 459 ms
Writing library                  : LAME3.97
-----------------------------------------------------------------------------------